<?xml version="1.0" encoding="UTF-8" standalone="no"?>
<svg
   version="1.1"
   viewBox="-5 -10 65.829704 89.997536"
   id="svg2"
   width="65.829704"
   height="89.997536"
   xmlns="http://www.w3.org/2000/svg"
   xmlns:svg="http://www.w3.org/2000/svg">
  <defs
     id="defs2" />
  <path
     d="m 60.691016,-1.8192575 c -0.4375,-2.293 -2.0469,-4.2773 -4.1953,-5.1836 -2.1523,-0.90625 -4.6953,-0.66797 -6.6406,0.61719 -1.6797,1.1094 -2.9258,2.9414 -3.8008,5.59769998 -0.98047,2.97660002 -1.9297,6.01950002 -2.8438,8.96480002 -1.418,4.5624995 -2.875,9.2382995 -4.5039,13.8239995 l -5.8438,-25.7659995 c -0.96094,-4.2344 -5.0547,-6.9101995 -9.3164,-6.0858995 -4.3125,0.8320295 -7.1602,5.0194995 -6.3438,9.33589948 l 4.543,24.09399952 c -2.4766,-1.5117 -5.8008,-1.6445 -8.5781,-0.29297 -2.1172,1.0312 -4.3397999,3.168 -5.2460999,6.3555 -1.2461,-0.78125 -2.8008,-1.1836 -4.7539,-0.76172 -2.46089997,0.53516 -4.6484005,2.3203 -6.0000005,4.8984 -2.2969,4.375 -2.2148,9.6289 -2.1406,14.266 v 0.10547 c 0.20312,12.805 4.69920053,22.16 13.0040005,27.059005 4.2265999,2.4922 9.4335999,4.0352 15.4839999,4.5859 1.4922,0.13672 2.9219,0.20312 4.3047,0.20312 3.3867,0 6.4492,-0.41016 9.2852,-1.2422 12.637,-3.6953 19.176,-16.848005 19.105,-27.926005 -0.01563,-2.6992 -0.04297,-6.7812 -2.4141,-9.7305 -0.49219,-0.60937 -1.0391,-1.1406 -1.6289,-1.6133 1.957,-8.6211 3.8906,-17.25 5.8242,-25.875 l 2.3125,-10.3049995 c 0.34766,-1.5469 0.73828,-3.30080002 0.39062,-5.125 z m -46.215,27.8009995 c 1.9336,-0.94141 4.2344,-0.84375 5.8672,0.24219 1.3242,0.88672 2.1289,2.332 2.5664,3.3867 0.59766,1.4375 0.92578,3.0547 1.2422,4.625 -0.05469,0.03516 -0.11328,0.05859 -0.16406,0.09375 -2.7148,1.793 -3.3242,5.4531 -2.5195,8.1406 0.57031,1.9062 1.8008,3.6367 3.4766,5.0312 -1.0859,1.3281 -2.5078,2.1211 -3.9883,2.1602 -1.5078,0.05469 -2.8359,-0.69531 -3.7617,-2.0586 -0.23438,-0.73438 -0.51953,-1.457 -0.82031,-2.1641 l -4.3125,-10.121 c -0.3125,-0.73047 -0.80859,-1.8828 -1.5547,-3.0195 0.19141,-4.1445 3.0625,-5.8789 3.9688,-6.3164 z m 38.73,24.867 c 0.0625,9.957 -5.7383,21.75 -16.949,25.027005 -3.625,1.0586 -7.7031,1.3633 -12.477,0.92969 -5.6055,-0.51172 -10.391,-1.918 -14.2299999,-4.179705 -9.29299997,-5.4805 -11.3980005,-16.359 -11.5270005,-24.523 v -0.10547 c -0.06641,-4.2773 -0.14453,-9.125 1.79690053,-12.824 0.92578,-1.7617 2.41409997,-3.0195 3.98439997,-3.3594 2.3086,-0.50391 3.8516,0.8125 5.5039,4.6875 l 4.3124999,10.121 c 0.76172,1.7852 1.4023,3.5039 0.90234,4.8945 -0.55469,1.5547 -2.5859,2.2734 -4.1211,1.9648 -1.6835999,-0.33594 -3.2811999,-1.6367 -4.3866999,-3.5664 -0.62109,-1.0859 -1.5195,-2.7734 -2.1641,-3.9961 -0.38672,-0.73438 -1.293,-1.0156 -2.0273,-0.62891 -0.73437,0.38672 -1.01559997,1.293 -0.62891,2.0273 0.65234,1.2422 1.5703,2.9609 2.2148,4.0859 1.5352,2.6836 3.8711,4.5156 6.4062,5.0195 3.2187999,0.64062 6.5233999,-1.0703 7.5351999,-3.8984 0.08203,-0.22656 0.13281,-0.45312 0.18359,-0.67578 1.0117,0.53125 2.1328,0.82422 3.3125,0.82422 0.0625,0 0.12891,0 0.19531,-0.0039 2.457,-0.06641 4.7734,-1.3555 6.4219,-3.5078 0.58594,0.30078 1.1914,0.57813 1.832,0.80469 0.98438,0.34766 1.9727,0.64453 2.9727,0.89062 -1.1641,0.69141 -2.2305,1.5469 -3.1641,2.5391 -2.6094,2.7773 -4.0547,6.5586 -3.9688,10.371 0.01953,0.82812 0.69531,1.4922 1.5352,1.4648 0.82812,-0.01953 1.4844,-0.70703 1.4648,-1.5352 -0.07031,-3.0312 1.082,-6.0391 3.1562,-8.25 2.0742,-2.2109 5.0039,-3.5469 8.0352,-3.668 0.80859,-0.03125 1.4453,-0.69922 1.4375,-1.5078 -0.0039,-0.80859 -0.65234,-1.4688 -1.4609,-1.4883 -3.1641,-0.08203 -6.1133,-0.62109 -9.0078,-1.6445 -3.0117,-1.0664 -5.2344,-3.1289 -5.9492,-5.5234 -0.47266,-1.5898 -0.17969,-3.8047 1.2969,-4.7812 1.0273,-0.67578 2.5234,-0.72266 3.9844,-0.67188 5.2734,0.1875 10.457,1.207 15.406,3.0312 2.4258,0.89453 4.9219,1.9219 6.4219,3.7852 1.5859,1.9688 1.7344,4.8438 1.7539,7.8672 z m 4.1641,-48.1989995 -2.3086,10.3049995 c -1.8555,8.2852 -3.7188,16.57 -5.5938,24.848 -1.1016,-0.54688 -2.2578,-1.0039 -3.3945,-1.4219 -5.25,-1.9336 -10.746,-3.0117 -16.336,-3.2148 -0.89844,-0.03125 -1.8164,-0.02344 -2.7148,0.09766 -0.30859,-1.5312 -0.65625,-3.0977 -1.2656,-4.6172 l -5.6055,-29.7189995 c -0.50781,-2.6992 1.2695,-5.3164 3.9648,-5.8359 2.6641,-0.51172 5.2227,1.1562 5.8242,3.8047 l 6.957,30.6679995 c 0.14453,0.64062 0.69141,1.1133 1.3477,1.1641 0.64453,0.04687 1.2656,-0.33594 1.5078,-0.94531 2.4102,-6.1406 4.4023,-12.531 6.3242,-18.7109995 0.91406,-2.9336 1.8555,-5.9648 2.8281,-8.91800002 0.65625,-1.98829998 1.5078,-3.30859998 2.6055,-4.03119998 1.1016,-0.73047 2.5977,-0.86719 3.8203,-0.35547 1.2188,0.51172 2.1641,1.6836 2.4141,2.9805 0.23047,1.21089998 -0.07422,2.582 -0.37109,3.9023 z"
     id="path1" />
</svg>
